<svg xmlns="http://www.w3.org/2000/svg" viewBox="0 -0.5 64 64" shape-rendering="crispEdges">
<metadata>Made with Pixels to Svg https://codepen.io/shshaw/pen/XbxvNj</metadata>
<path stroke="#e50000" d="M0 0h1M2 0h1M63 0h1M1 1h1M0 2h1M2 2h1M58 2h1M58 3h1M60 3h1M58 4h1M60 4h1M10 5h1M14 5h1M19 5h1M23 5h1M58 5h3M60 6h2M3 13h1M38 14h1M54 15h4M43 16h4M53 16h6M42 17h6M52 17h2M56 17h4M41 18h2M46 18h3M52 18h2M55 18h5M41 19h2M44 19h1M46 19h3M52 19h8M41 20h2M46 20h3M52 20h8M41 21h2M44 21h1M46 21h3M53 21h6M42 22h1M46 22h2M54 22h4M43 23h4M47 24h3M46 25h2M46 26h4M47 27h3M47 28h1M49 28h1M39 29h23M39 30h1M61 30h1M39 31h1M61 31h1M39 32h1M61 32h1M39 33h1M61 33h1M39 34h1M61 34h1M39 35h1M61 35h1M39 36h1M61 36h1M39 37h1M61 38h1M61 39h1M22 40h2M25 40h2M61 40h1M22 41h1M24 41h1M26 41h1M40 41h4M45 41h17M13 42h3M23 42h3M22 43h2M25 43h2M29 43h1M33 43h1M35 43h4M40 43h4M45 43h4M50 43h1M23 44h1M25 44h1M29 44h1M33 44h1M35 44h1M40 44h1M43 44h1M45 44h1M50 44h1M13 45h3M29 45h5M35 45h3M40 45h4M46 45h2M50 45h1M13 46h3M22 46h1M29 46h1M33 46h1M35 46h1M40 46h1M45 46h1M50 46h1M29 47h1M33 47h1M35 47h4M40 47h1M45 47h1M50 47h3M29 49h5M35 49h4M41 49h5M31 50h1M35 50h1M41 50h2M44 50h2M31 51h1M35 51h1M37 51h2M41 51h1M45 51h1M31 52h1M35 52h1M38 52h2M41 52h2M44 52h2M5 53h2M29 53h5M35 53h4M41 53h5M30 59h4M35 59h1M39 59h3M43 59h2M47 59h2M16 60h2M25 60h2M30 60h1M35 60h1M39 60h1M43 60h1M45 60h1M47 60h1M49 60h1M16 61h2M25 61h1M31 61h2M35 61h1M39 61h2M43 61h3M47 61h3M16 62h2M30 62h1M35 62h1M39 62h1M43 62h1M47 62h1M0 63h1M16 63h2M24 63h2M30 63h1M35 63h3M39 63h3M43 63h1M47 63h1M51 63h1" />
<path stroke="#ffffff" d="M1 0h1M4 0h3M8 0h17M26 0h1M28 0h2M31 0h19M53 0h10M0 1h1M2 1h1M4 1h3M8 1h17M26 1h1M29 1h1M31 1h2M35 1h17M55 1h9M1 2h1M4 2h3M8 2h17M26 2h1M28 2h1M31 2h5M37 2h4M49 2h2M52 2h6M59 2h5M18 3h1M22 3h1M24 3h1M26 3h1M28 3h2M31 3h6M38 3h2M41 3h1M43 3h1M45 3h1M48 3h1M52 3h2M55 3h3M59 3h1M61 3h3M0 4h3M5 4h1M8 4h2M12 4h1M16 4h2M21 4h1M25 4h13M40 4h2M43 4h6M50 4h1M55 4h3M59 4h1M61 4h3M0 5h1M2 5h1M4 5h1M6 5h1M8 5h2M25 5h2M30 5h1M34 5h1M36 5h1M38 5h1M43 5h1M45 5h2M48 5h2M55 5h3M61 5h3M0 6h3M5 6h1M8 6h2M11 6h1M13 6h3M18 6h3M22 6h2M25 6h2M28 6h3M32 6h3M36 6h1M38 6h1M40 6h2M43 6h7M53 6h7M62 6h2M25 7h2M29 7h2M33 7h2M36 7h1M38 7h1M43 7h1M45 7h1M48 7h1M53 7h1M55 7h9M0 8h3M4 8h3M25 8h2M28 8h3M32 8h3M36 8h1M38 8h1M40 8h1M42 8h7M51 8h5M59 8h2M63 8h1M0 9h1M2 9h1M4 9h1M6 9h1M24 9h3M28 9h3M34 9h1M38 9h1M40 9h2M43 9h5M49 9h2M52 9h4M57 9h2M60 9h1M62 9h1M0 10h3M4 10h3M8 10h1M12 10h8M24 10h24M49 10h3M53 10h3M57 10h2M60 10h1M62 10h1M8 11h2M19 11h1M23 11h10M36 11h1M41 11h1M43 11h4M48 11h4M53 11h3M59 11h2M63 11h1M0 12h10M17 12h2M23 12h6M30 12h3M34 12h3M38 12h2M41 12h6M48 12h5M54 12h2M57 12h4M62 12h2M0 13h3M4 13h6M15 13h4M22 13h6M29 13h4M36 13h1M41 13h1M43 13h3M47 13h7M55 13h1M57 13h4M62 13h2M0 14h10M12 14h1M16 14h2M22 14h5M28 14h1M30 14h3M34 14h3M39 14h1M41 14h1M43 14h3M47 14h8M56 14h8M0 15h10M12 15h2M17 15h1M21 15h5M27 15h1M29 15h1M31 15h2M36 15h1M38 15h2M41 15h1M43 15h2M46 15h8M58 15h6M0 16h10M12 16h3M21 16h4M27 16h4M32 16h11M47 16h6M59 16h5M0 17h6M12 17h4M20 17h4M26 17h1M28 17h4M33 17h9M48 17h4M54 17h2M60 17h4M0 18h5M12 18h4M20 18h4M25 18h3M29 18h4M34 18h7M49 18h3M54 18h1M60 18h4M0 19h4M12 19h4M21 19h4M26 19h6M33 19h3M37 19h4M49 19h3M60 19h4M0 20h4M12 20h3M27 20h4M32 20h3M38 20h3M49 20h3M60 20h4M0 21h4M11 21h4M25 21h1M28 21h2M31 21h5M37 21h4M49 21h4M59 21h5M0 22h5M11 22h3M25 22h2M28 22h1M30 22h12M48 22h6M58 22h6M0 23h6M10 23h11M25 23h2M29 23h14M47 23h17M0 24h20M26 24h1M30 24h2M35 24h2M40 24h2M45 24h2M50 24h2M55 24h2M60 24h1M62 24h2M0 25h13M14 25h6M23 25h1M30 25h1M35 25h1M40 25h1M45 25h1M50 25h1M55 25h1M60 25h4M0 26h3M7 26h5M15 26h4M23 26h2M30 26h1M35 26h1M40 26h1M45 26h1M50 26h1M55 26h1M60 26h4M0 27h3M8 27h5M14 27h5M22 27h2M25 27h1M35 27h2M40 27h2M45 27h2M50 27h2M55 27h2M60 27h4M0 28h4M8 28h10M21 28h3M25 28h2M35 28h2M38 28h1M40 28h2M43 28h1M45 28h2M48 28h1M50 28h2M53 28h1M55 28h2M58 28h1M60 28h4M0 29h4M11 29h7M21 29h6M35 29h4M62 29h2M0 30h3M12 30h5M20 30h7M28 30h7M36 30h3M62 30h2M0 31h3M12 31h5M19 31h6M27 31h2M30 31h1M32 31h1M34 31h2M37 31h2M62 31h2M0 32h3M12 32h4M19 32h7M27 32h2M30 32h1M32 32h1M34 32h2M37 32h2M62 32h2M0 33h4M11 33h5M18 33h4M23 33h3M27 33h3M32 33h4M37 33h2M63 33h1M0 34h15M18 34h8M27 34h1M29 34h5M35 34h1M37 34h2M63 34h1M0 35h15M17 35h5M24 35h2M27 35h2M30 35h3M34 35h2M37 35h2M63 35h1M0 36h15M16 36h11M28 36h2M33 36h2M38 36h1M63 36h1M0 37h28M29 37h5M35 37h1M63 37h1M3 38h1M5 38h3M9 38h1M13 38h1M15 38h2M18 38h2M21 38h1M23 38h1M25 38h1M27 38h2M30 38h2M62 38h2M0 39h1M2 39h2M6 39h1M9 39h2M12 39h2M15 39h2M19 39h1M21 39h2M26 39h3M33 39h1M35 39h3M62 39h2M0 40h1M2 40h2M5 40h1M7 40h1M9 40h2M12 40h2M15 40h2M18 40h1M21 40h1M27 40h2M33 40h1M37 40h2M62 40h2M0 41h1M2 41h2M5 41h3M9 41h2M12 41h2M16 41h1M18 41h2M28 41h1M30 41h2M33 41h1M35 41h4M62 41h2M0 42h13M16 42h6M27 42h2M30 42h2M33 42h1M38 42h1M45 42h10M56 42h6M63 42h1M0 43h3M11 43h2M16 43h5M28 43h1M30 43h3M34 43h1M39 43h1M49 43h1M51 43h10M62 43h2M0 44h3M11 44h2M16 44h7M26 44h3M30 44h3M34 44h1M36 44h4M41 44h2M46 44h4M51 44h9M61 44h2M0 45h3M11 45h2M16 45h13M34 45h1M38 45h2M48 45h2M51 45h9M61 45h3M0 46h3M11 46h2M16 46h6M23 46h6M30 46h3M34 46h1M36 46h4M41 46h4M48 46h2M51 46h7M59 46h3M63 46h1M0 47h3M11 47h14M26 47h3M30 47h3M34 47h1M39 47h1M41 47h4M49 47h1M53 47h4M61 47h2M0 48h1M11 48h3M15 48h1M17 48h2M20 48h2M23 48h1M25 48h1M27 48h20M50 48h3M59 48h5M0 49h1M2 49h2M5 49h1M7 49h1M9 49h2M12 49h1M14 49h1M16 49h1M18 49h1M20 49h2M23 49h3M27 49h2M34 49h1M39 49h2M46 49h2M57 49h2M63 49h1M0 50h1M4 50h2M7 50h1M11 50h2M14 50h3M18 50h1M20 50h2M23 50h2M26 50h5M32 50h3M36 50h5M43 50h1M46 50h3M51 50h2M57 50h4M62 50h2M0 51h1M2 51h2M5 51h1M7 51h1M9 51h2M12 51h2M15 51h1M17 51h2M20 51h2M23 51h8M32 51h3M36 51h1M39 51h2M42 51h3M46 51h3M50 51h2M58 51h4M63 51h1M0 52h1M4 52h2M7 52h1M11 52h4M16 52h4M22 52h3M26 52h5M32 52h3M36 52h2M40 52h1M43 52h1M46 52h3M50 52h1M53 52h4M59 52h3M63 52h1M0 53h5M7 53h22M34 53h1M39 53h2M46 53h1M52 53h6M0 54h4M8 54h11M22 54h1M24 54h1M26 54h20M52 54h6M60 54h2M0 55h3M9 55h9M24 55h1M27 55h8M36 55h10M49 55h1M52 55h6M59 55h4M0 56h2M12 56h6M27 56h21M49 56h2M53 56h4M59 56h4M0 57h2M12 57h7M27 57h4M32 57h13M49 57h2M60 57h2M0 58h2M12 58h13M26 58h19M49 58h1M0 59h3M5 59h2M9 59h13M23 59h1M25 59h5M34 59h1M36 59h3M42 59h1M45 59h1M0 60h3M6 60h1M9 60h3M14 60h2M18 60h4M29 60h1M31 60h4M36 60h3M40 60h3M44 60h1M0 61h4M5 61h1M7 61h5M14 61h2M18 61h4M26 61h1M28 61h3M33 61h2M36 61h3M41 61h2M0 62h3M7 62h5M14 62h2M18 62h5M27 62h3M31 62h4M36 62h3M40 62h3M44 62h2M1 63h1M8 63h4M14 63h2M18 63h6M26 63h4M31 63h4M38 63h1M42 63h1M44 63h2" />
<path stroke="#222222" d="M3 0h1M7 0h1M25 0h1M27 0h1M30 0h1M50 0h3M3 1h1M7 1h1M25 1h1M27 1h2M30 1h1M52 1h1M3 2h1M7 2h1M25 2h1M27 2h1M29 2h2M36 2h1M41 2h8M51 2h1M0 3h10M11 3h3M15 3h3M20 3h2M25 3h1M27 3h1M30 3h1M37 3h1M40 3h1M49 3h2M3 4h1M7 4h1M38 4h2M3 5h1M7 5h1M3 6h1M7 6h1M0 7h25M3 8h1M7 8h1M10 8h15M56 8h3M61 8h2M3 9h1M7 9h1M10 9h14M56 9h1M59 9h1M61 9h1M63 9h1M3 10h1M7 10h1M10 10h2M20 10h4M56 10h1M59 10h1M61 10h1M63 10h1M0 11h8M10 11h9M20 11h3M33 11h3M37 11h4M42 11h1M56 11h3M61 11h2M10 12h7M19 12h4M33 12h1M37 12h1M40 12h1M56 12h1M61 12h1M10 13h2M19 13h3M33 13h3M37 13h4M42 13h1M56 13h1M61 13h1M10 14h2M18 14h4M33 14h1M37 14h1M40 14h1M42 14h1M10 15h2M18 15h3M33 15h3M37 15h1M40 15h1M42 15h1M10 16h2M17 16h4M6 17h6M17 17h3M5 18h7M16 18h4M43 18h3M4 19h8M16 19h3M43 19h1M45 19h1M4 20h8M15 20h11M43 20h3M4 21h7M15 21h10M43 21h1M45 21h1M5 22h6M14 22h11M43 22h3M6 23h4M21 23h3M20 24h4M57 24h3M61 24h1M20 25h3M56 25h2M19 26h4M56 26h4M19 27h3M57 27h3M18 28h3M57 28h1M59 28h1M6 29h1M8 29h1M18 29h3M6 30h1M8 30h1M17 30h3M6 31h1M8 31h1M10 31h1M17 31h2M25 31h1M6 32h1M8 32h1M16 32h3M31 32h1M6 33h1M8 33h1M16 33h2M30 33h2M43 33h3M47 33h3M51 33h1M54 33h1M56 33h3M60 33h1M62 33h1M15 34h3M43 34h1M47 34h1M49 34h1M51 34h2M54 34h1M56 34h1M60 34h1M62 34h1M15 35h2M43 35h2M47 35h1M49 35h1M51 35h1M53 35h2M56 35h2M60 35h1M62 35h1M15 36h1M43 36h1M47 36h1M49 36h1M51 36h1M53 36h2M56 36h1M60 36h1M62 36h1M43 37h1M47 37h3M51 37h1M54 37h1M56 37h1M60 37h3M22 38h1M24 38h1M26 38h1M23 39h3M24 40h1M21 41h1M23 41h1M25 41h1M27 41h1M22 42h1M26 42h1M55 42h1M21 43h1M24 43h1M27 43h1M24 44h1M25 47h1M24 48h1M26 48h1M53 48h6M26 49h1M51 49h2M59 49h2M25 50h1M50 50h1M61 50h1M49 51h1M62 51h1M25 52h1M49 52h1M62 52h1M48 53h1M63 53h1M23 54h1M48 54h1M63 54h1M23 55h1M35 55h1M48 55h1M63 55h1M48 56h1M63 56h1M10 57h1M48 57h1M63 57h1M48 58h1M52 58h8M63 58h1M49 59h3M54 59h1M57 59h1M60 59h3M50 60h1M54 60h1M57 60h1M61 60h1M4 61h1M50 61h1M61 61h1M3 62h1M51 62h1M60 62h1M2 63h1M52 63h8M62 63h1" />
<path stroke="#94e044" d="M33 1h1M10 56h2M11 57h1M10 58h2M3 59h2M7 59h2M3 60h2M7 60h2" />
<path stroke="#e59500" d="M34 1h1M27 17h1M13 43h3M13 44h3M52 59h2M55 59h2M58 59h2M51 60h3M55 60h2M58 60h3M51 61h10M52 62h8" />
<path stroke="#0000ea" d="M53 1h2M4 4h1M6 4h1M1 5h1M5 5h1M4 6h1M6 6h1M1 9h1M5 9h1M37 24h3M36 25h2M36 26h4M24 27h1M37 27h3M24 28h1M37 28h1M39 28h1M28 34h1M34 34h1M29 35h1M33 35h1M30 36h3M3 47h8M58 47h1M4 48h2M7 48h1" />
<path stroke="#e5d900" d="M10 3h1M14 3h1M19 3h1M23 3h1M10 4h2M13 4h3M18 4h3M22 4h3M11 5h3M15 5h4M20 5h3M24 5h1M10 6h1M12 6h1M16 6h2M21 6h1M24 6h1M27 14h1M29 14h1M26 15h1M30 15h1M25 16h1M31 16h1M24 17h1M32 17h1M33 18h1M32 19h1M31 20h1M36 20h1M26 21h1M30 21h1M27 22h1M29 22h1M13 26h1M4 29h2M7 29h1M9 29h2M3 30h3M7 30h1M9 30h3M27 30h1M35 30h1M3 31h3M7 31h1M9 31h1M11 31h1M26 31h1M36 31h1M3 32h3M7 32h1M9 32h3M26 32h1M36 32h1M42 32h17M4 33h2M7 33h1M9 33h2M26 33h1M36 33h1M42 33h1M46 33h1M50 33h1M52 33h2M55 33h1M26 34h1M36 34h1M42 34h1M44 34h3M48 34h1M50 34h1M53 34h1M55 34h1M57 34h2M26 35h1M36 35h1M42 35h1M45 35h2M48 35h1M50 35h1M52 35h1M55 35h1M58 35h1M27 36h1M35 36h1M42 36h1M44 36h3M48 36h1M50 36h1M52 36h1M55 36h1M57 36h2M28 37h1M34 37h1M42 37h1M44 37h3M50 37h1M52 37h2M55 37h1M57 37h2M33 38h1M42 38h2M48 38h11M30 39h2M25 54h1M26 55h1M26 57h1" />
<path stroke="#ffa7d1" d="M42 3h1M44 3h1M46 3h2M51 3h1M42 4h1M49 4h1M51 4h1M42 5h1M44 5h1M47 5h1M44 7h1M46 7h2M36 19h1M35 20h1M37 20h1M36 21h1M27 23h2M32 24h3M13 25h1M31 25h2M12 26h1M14 26h1M31 26h4M13 27h1M32 27h3M32 28h1M34 28h1M3 43h8M3 44h8M58 46h1M57 47h1M59 47h1M1 48h3M6 48h1M8 48h3M14 48h1M16 48h1M19 48h1M22 48h1M1 49h1M4 49h1M6 49h1M8 49h1M11 49h1M13 49h1M15 49h1M17 49h1M19 49h1M22 49h1M1 50h3M6 50h1M8 50h3M13 50h1M17 50h1M19 50h1M22 50h1M1 51h1M4 51h1M6 51h1M8 51h1M11 51h1M14 51h1M16 51h1M19 51h1M22 51h1M1 52h3M6 52h1M8 52h3M15 52h1M20 52h2M46 54h2M46 55h2" />
<path stroke="#820080" d="M54 3h1M54 4h1M54 5h1M54 7h1M27 24h3M42 24h3M26 25h2M41 25h2M26 26h4M41 26h4M27 27h3M42 27h3M27 28h1M29 28h1M42 28h1M44 28h1M23 35h1M3 45h8M3 46h8" />
<path stroke="#05be03" d="M52 4h2M50 5h4M50 6h3M49 7h4M49 8h2M48 9h1M51 9h1M48 10h1M52 10h1M47 11h1M52 11h1M47 12h1M53 12h1M28 13h1M46 13h1M54 13h1M46 14h1M55 14h1M28 15h1M45 15h1M52 24h3M51 25h2M51 26h4M52 27h3M52 28h1M54 28h1M40 30h21M29 31h1M33 31h1M40 31h1M60 31h1M29 32h1M33 32h1M40 32h1M60 32h1M40 33h1M40 34h1M40 35h1M40 36h1M40 37h1M0 38h3M4 38h1M8 38h1M10 38h3M14 38h1M17 38h1M20 38h1M40 38h1M60 38h1M1 39h1M4 39h2M7 39h2M11 39h1M14 39h1M17 39h2M20 39h1M40 39h1M60 39h1M1 40h1M4 40h1M6 40h1M8 40h1M11 40h1M14 40h1M17 40h1M19 40h2M40 40h4M48 40h13M1 41h1M4 41h1M8 41h1M11 41h1M14 41h2M17 41h1M20 41h1M53 49h4M53 50h4M52 51h6M51 52h2M57 52h2M49 53h3M58 53h5M4 54h4M19 54h3M49 54h3M58 54h2M62 54h1M3 55h6M18 55h5M25 55h1M50 55h2M58 55h1M2 56h8M18 56h9M51 56h2M57 56h2M2 57h8M19 57h7M51 57h9M62 57h1M2 58h8M25 58h1M50 58h2M60 58h3M22 59h1M24 59h1M12 60h2M22 60h3M27 60h2M12 61h2M22 61h3M27 61h1M12 62h2M23 62h4M3 63h4M12 63h2" />
<path stroke="#0083c7" d="M27 5h3M31 5h3M35 5h1M37 5h1M39 5h3M27 6h1M31 6h1M35 6h1M37 6h1M39 6h1M42 6h1M27 7h2M31 7h2M35 7h1M37 7h1M39 7h4M8 8h2M27 8h1M31 8h1M35 8h1M37 8h1M39 8h1M41 8h1M8 9h2M27 9h1M31 9h3M35 9h3M39 9h1M42 9h1M9 10h1M29 12h1M12 13h3M13 14h3M14 15h3M15 16h2M16 17h1M19 19h2M24 23h1M24 24h2M24 25h2M3 26h1M25 26h1M3 27h1M26 27h1M4 28h1M28 28h1M27 29h1M31 31h1M22 33h1M36 36h2M36 37h3M29 38h1M32 38h1M34 38h6M44 38h4M29 39h1M32 39h1M34 39h1M38 39h2M44 39h1M47 39h1M29 40h4M34 40h3M39 40h1M44 40h4M29 41h1M32 41h1M34 41h1M39 41h1M44 41h1M29 42h1M32 42h1M34 42h4M39 42h6M44 43h1M44 44h1M44 45h2M46 46h2M46 47h3M47 48h3M48 49h3M49 50h1M31 57h1M45 57h3M45 58h3M46 59h1M63 59h1M46 60h1M48 60h1M46 61h1M62 61h2M46 62h1M48 62h3M61 62h3M46 63h1M48 63h3M60 63h2M63 63h1" />
<path stroke="#a06a42" d="M26 16h1M25 17h1M24 18h1M25 19h1M26 20h1M27 21h1M30 27h2M30 28h2M33 28h1M28 29h7M41 31h19M41 32h1M59 32h1M41 33h1M59 33h1M41 34h1M59 34h1M41 35h1M59 35h1M41 36h1M59 36h1M41 37h1M59 37h1M41 38h1M59 38h1M41 39h3M45 39h2M48 39h12M47 53h1" />
<path stroke="#00d3dd" d="M28 18h1M28 25h2M33 25h2M38 25h2M43 25h2M48 25h2M53 25h2M58 25h2M4 26h3M4 27h4M5 28h3M62 60h2" />
<path stroke="#888888" d="M22 35h1M62 42h1M60 45h1M63 47h1M5 60h1M6 61h1M6 62h1M7 63h1" />
<path stroke="#e4e4e4" d="M61 43h1M60 44h1M63 44h1M62 46h1M60 47h1M61 49h2M4 62h2" />
</svg>