<?xml version="1.0" encoding="UTF-8" standalone="no"?><svg xmlns="http://www.w3.org/2000/svg" xmlns:xlink="http://www.w3.org/1999/xlink" contentStyleType="text/css" height="250px" preserveAspectRatio="none" style="width:701px;height:250px;background:#FFFFFF;" version="1.1" viewBox="0 0 701 250" width="701px" zoomAndPan="magnify"><defs/><g><line style="stroke:#181818;stroke-width:0.5;stroke-dasharray:5.0,5.0;" x1="171" x2="171" y1="36.2969" y2="215.0938"/><line style="stroke:#181818;stroke-width:0.5;stroke-dasharray:5.0,5.0;" x1="450" x2="450" y1="36.2969" y2="215.0938"/><rect fill="#E2E2F0" height="30.2969" rx="2.5" ry="2.5" style="stroke:#181818;stroke-width:0.5;" width="77" x="133" y="5"/><text fill="#000000" font-family="sans-serif" font-size="14" lengthAdjust="spacing" textLength="63" x="140" y="24.9951">Frontend</text><rect fill="#E2E2F0" height="30.2969" rx="2.5" ry="2.5" style="stroke:#181818;stroke-width:0.5;" width="77" x="133" y="214.0938"/><text fill="#000000" font-family="sans-serif" font-size="14" lengthAdjust="spacing" textLength="63" x="140" y="234.0889">Frontend</text><rect fill="#E2E2F0" height="30.2969" rx="2.5" ry="2.5" style="stroke:#181818;stroke-width:0.5;" width="75" x="413" y="5"/><text fill="#000000" font-family="sans-serif" font-size="14" lengthAdjust="spacing" textLength="61" x="420" y="24.9951">Backend</text><rect fill="#E2E2F0" height="30.2969" rx="2.5" ry="2.5" style="stroke:#181818;stroke-width:0.5;" width="75" x="413" y="214.0938"/><text fill="#000000" font-family="sans-serif" font-size="14" lengthAdjust="spacing" textLength="61" x="420" y="234.0889">Backend</text><polygon fill="#181818" points="438.5,63.4297,448.5,67.4297,438.5,71.4297,442.5,67.4297" style="stroke:#181818;stroke-width:1.0;"/><line style="stroke:#181818;stroke-width:1.0;stroke-dasharray:2.0,2.0;" x1="171.5" x2="444.5" y1="67.4297" y2="67.4297"/><text fill="#000000" font-family="sans-serif" font-size="13" lengthAdjust="spacing" textLength="232" x="178.5" y="62.3638">Initialize the WebSockets connection</text><polygon fill="#181818" points="182.5,103.1289,172.5,107.1289,182.5,111.1289,178.5,107.1289" style="stroke:#181818;stroke-width:1.0;"/><line style="stroke:#181818;stroke-width:1.0;stroke-dasharray:2.0,2.0;" x1="176.5" x2="449.5" y1="107.1289" y2="107.1289"/><text fill="#000000" font-family="sans-serif" font-size="13" lengthAdjust="spacing" textLength="149" x="188.5" y="102.063">Emit INIT_BOARD event</text><path d="M455,80.4297 L455,120.4297 L694,120.4297 L694,90.4297 L684,80.4297 L455,80.4297 " fill="#FEFFDD" style="stroke:#181818;stroke-width:0.5;"/><path d="M684,80.4297 L684,90.4297 L694,90.4297 L684,80.4297 " fill="#FEFFDD" style="stroke:#181818;stroke-width:0.5;"/><text fill="#000000" font-family="sans-serif" font-size="13" lengthAdjust="spacing" textLength="168" x="461" y="97.4966">Contains the current state</text><text fill="#000000" font-family="sans-serif" font-size="13" lengthAdjust="spacing" textLength="218" x="461" y="112.6294">of the board and the configuration</text><polygon fill="#181818" points="438.5,163.9609,448.5,167.9609,438.5,171.9609,442.5,167.9609" style="stroke:#181818;stroke-width:1.0;"/><line style="stroke:#181818;stroke-width:1.0;stroke-dasharray:2.0,2.0;" x1="171.5" x2="444.5" y1="167.9609" y2="167.9609"/><text fill="#000000" font-family="sans-serif" font-size="13" lengthAdjust="spacing" textLength="155" x="178.5" y="162.895">Emit FINGERPRINT event</text><path d="M5,138.2617 L5,163.2617 L167,163.2617 L167,148.2617 L157,138.2617 L5,138.2617 " fill="#FEFFDD" style="stroke:#181818;stroke-width:0.5;"/><path d="M157,138.2617 L157,148.2617 L167,148.2617 L157,138.2617 " fill="#FEFFDD" style="stroke:#181818;stroke-width:0.5;"/><text fill="#000000" font-family="sans-serif" font-size="13" lengthAdjust="spacing" textLength="141" x="11" y="155.3286">Generate a fingerprint</text><path d="M455,130.6953 L455,170.6953 L669,170.6953 L669,140.6953 L659,130.6953 L455,130.6953 " fill="#FEFFDD" style="stroke:#181818;stroke-width:0.5;"/><path d="M659,130.6953 L659,140.6953 L669,140.6953 L659,130.6953 " fill="#FEFFDD" style="stroke:#181818;stroke-width:0.5;"/><text fill="#000000" font-family="sans-serif" font-size="13" lengthAdjust="spacing" textLength="193" x="461" y="147.7622">Backend stores the fingerprint</text><text fill="#000000" font-family="sans-serif" font-size="13" lengthAdjust="spacing" textLength="140" x="461" y="162.895">in the socket instance</text><polygon fill="#181818" points="182.5,193.0938,172.5,197.0938,182.5,201.0938,178.5,197.0938" style="stroke:#181818;stroke-width:1.0;"/><line style="stroke:#181818;stroke-width:1.0;stroke-dasharray:2.0,2.0;" x1="176.5" x2="449.5" y1="197.0938" y2="197.0938"/><text fill="#000000" font-family="sans-serif" font-size="13" lengthAdjust="spacing" textLength="255" x="188.5" y="192.0278">Send the current cooldown of the player</text><!--MD5=[9042027630892067ea10e45962d56000]
@startuml sequence-websockets

participant Frontend
participant Backend

Frontend - -> Backend: Initialize the WebSockets connection
Backend - -> Frontend: Emit INIT_BOARD event

note right
  Contains the current state
  of the board and the configuration
end note

Frontend - -> Backend: Emit FINGERPRINT event

note left
  Generate a fingerprint
end note

note right
  Backend stores the fingerprint
  in the socket instance
end note

Backend - -> Frontend: Send the current cooldown of the player
@end

PlantUML version 1.2022.7(Mon Aug 22 17:01:30 UTC 2022)
(GPL source distribution)
Java Runtime: OpenJDK Runtime Environment
JVM: OpenJDK 64-Bit Server VM
Default Encoding: UTF-8
Language: en
Country: US
--></g></svg>